<svg width="16" height="20" viewBox="0 0 16 20" fill="none" xmlns="http://www.w3.org/2000/svg">
<path d="M9.50391 2.12654C9.50391 2.98709 8.80629 3.68471 7.94573 3.68471C7.08518 3.68471 6.38756 2.98709 6.38756 2.12654C6.38756 1.26598 7.08518 0.568359 7.94573 0.568359C8.80629 0.568359 9.50391 1.26598 9.50391 2.12654Z" fill="#1F1F22"/>
<path d="M7.94737 2.12651C11.0695 2.12676 13.6134 4.59842 13.7305 7.69198C13.7305 7.69358 13.7318 7.69487 13.7334 7.69487C13.7351 7.69487 13.7364 7.6962 13.7364 7.69785V11.074C13.7364 11.6934 14.4544 12.188 14.8019 12.7007L15.8136 14.1949C16.2628 14.8588 15.7871 15.7552 14.9855 15.7554H1.01475C0.212874 15.7554 -0.262849 14.8589 0.186629 14.1949L1.19737 12.7007C1.52713 12.2139 2.15929 11.7477 2.15929 11.1597V7.69785C2.15929 7.6962 2.16062 7.69487 2.16227 7.69487C2.16387 7.69487 2.16519 7.69358 2.16525 7.69198C2.28237 4.59842 4.82521 2.12672 7.94737 2.12651Z" fill="#1F1F22"/>
<path d="M10.3514 17.0197C10.3513 18.3518 9.27139 19.4318 7.93931 19.4318C6.69043 19.4317 5.6633 18.4822 5.5399 17.2658L5.5272 17.0197H10.3514Z" fill="#1F1F22"/>
</svg>
